<?xml version="1.0" encoding="UTF-8" standalone="no"?><svg xmlns="http://www.w3.org/2000/svg" xmlns:xlink="http://www.w3.org/1999/xlink" contentScriptType="application/ecmascript" contentStyleType="text/css" height="477px" preserveAspectRatio="none" style="width:874px;height:477px;" version="1.1" viewBox="0 0 874 477" width="874px" zoomAndPan="magnify"><defs/><g><ellipse cx="96.3501" cy="296.8774" fill="#F8F8F8" rx="19.9706" ry="12.8774" style="stroke: #383838; stroke-width: 0.5;"/><text fill="#000000" font-family="Tahoma, sans-serif" font-size="12" lengthAdjust="spacingAndGlyphs" textLength="24" x="84.3501" y="300.3618">App</text><ellipse cx="797.3408" cy="306.8922" fill="#F8F8F8" rx="59.9608" ry="14.3922" style="stroke: #383838; stroke-width: 0.5;"/><text fill="#000000" font-family="Tahoma, sans-serif" font-size="12" font-weight="bold" lengthAdjust="spacingAndGlyphs" textLength="90" x="752.3408" y="310.3765">CandleChart</text><ellipse cx="623.2271" cy="278.8694" fill="#F8F8F8" rx="69.8471" ry="16.3694" style="stroke: #383838; stroke-width: 0.5;"/><text fill="#000000" font-family="Tahoma, sans-serif" font-size="12" lengthAdjust="spacingAndGlyphs" textLength="114" x="566.2271" y="282.3538">CandleChartMonth</text><ellipse cx="623.4746" cy="329.8189" fill="#F8F8F8" rx="74.5946" ry="17.3189" style="stroke: #383838; stroke-width: 0.5;"/><text fill="#000000" font-family="Tahoma, sans-serif" font-size="12" lengthAdjust="spacingAndGlyphs" textLength="125" x="560.9746" y="333.3033">CandleChartQuarter</text><ellipse cx="623.3765" cy="381.1993" fill="#F8F8F8" rx="68.9965" ry="16.1993" style="stroke: #383838; stroke-width: 0.5;"/><text fill="#000000" font-family="Tahoma, sans-serif" font-size="12" lengthAdjust="spacingAndGlyphs" textLength="112" x="567.3765" y="384.6837">CandleChartWeek</text><ellipse cx="623.4338" cy="430.1108" fill="#F8F8F8" rx="66.0538" ry="15.6108" style="stroke: #383838; stroke-width: 0.5;"/><text fill="#000000" font-family="Tahoma, sans-serif" font-size="12" lengthAdjust="spacingAndGlyphs" textLength="105" x="570.9338" y="433.5951">CandleChartYear</text><ellipse cx="451.1704" cy="283.8774" fill="#F8F8F8" rx="51.7904" ry="12.8774" style="stroke: #383838; stroke-width: 0.5;"/><text fill="#000000" font-family="Tahoma, sans-serif" font-size="12" lengthAdjust="spacingAndGlyphs" textLength="69" x="416.6704" y="287.3618">Categories</text><ellipse cx="451.4069" cy="158.8774" fill="#F8F8F8" rx="35.5269" ry="12.8774" style="stroke: #383838; stroke-width: 0.5;"/><text fill="#000000" font-family="Tahoma, sans-serif" font-size="12" lengthAdjust="spacingAndGlyphs" textLength="46" x="428.4069" y="162.3618">Header</text><ellipse cx="292.6851" cy="197.8774" fill="#F8F8F8" rx="43.3051" ry="12.8774" style="stroke: #383838; stroke-width: 0.5;"/><text fill="#000000" font-family="Tahoma, sans-serif" font-size="12" lengthAdjust="spacingAndGlyphs" textLength="57" x="264.1851" y="201.3618">Hwayeon</text><!--MD5=[bcec2c12fb9a04430c972981ac022607]
entity _InterfaceCompany--><rect fill="#F8F8F8" height="33.9688" rx="3" ry="3" style="stroke: #000000; stroke-width: 0.5;" width="133" x="730.88" y="339"/><text fill="#000000" font-family="Tahoma, sans-serif" font-size="12" lengthAdjust="spacingAndGlyphs" textLength="113" x="740.88" y="360.1387">InterfaceCompany</text><ellipse cx="451.179" cy="231.8774" fill="#F8F8F8" rx="22.799" ry="12.8774" style="stroke: #383838; stroke-width: 0.5;"/><text fill="#000000" font-family="Tahoma, sans-serif" font-size="12" lengthAdjust="spacingAndGlyphs" textLength="28" x="437.179" y="235.3618">Main</text><ellipse cx="292.7366" cy="276.7713" fill="#F8F8F8" rx="56.8566" ry="13.7713" style="stroke: #383838; stroke-width: 0.5;"/><text fill="#000000" font-family="Tahoma, sans-serif" font-size="12" lengthAdjust="spacingAndGlyphs" textLength="82" x="251.7366" y="280.2557">MainStrategy</text><ellipse cx="96.3403" cy="65.8922" fill="#F8F8F8" rx="59.9608" ry="14.3922" style="stroke: #383838; stroke-width: 0.5;"/><text fill="#000000" font-family="Tahoma, sans-serif" font-size="12" font-weight="bold" lengthAdjust="spacingAndGlyphs" textLength="90" x="51.3403" y="69.3765">minho/Minho</text><ellipse cx="292.6775" cy="320.9595" fill="#F8F8F8" rx="52.7975" ry="12.9595" style="stroke: #383838; stroke-width: 0.5;"/><text fill="#000000" font-family="Tahoma, sans-serif" font-size="12" lengthAdjust="spacingAndGlyphs" textLength="71" x="257.1775" y="324.4439">ResultPage</text><ellipse cx="623.549" cy="158.8774" fill="#F8F8F8" rx="49.669" ry="12.8774" style="stroke: #383838; stroke-width: 0.5;"/><text fill="#000000" font-family="Tahoma, sans-serif" font-size="12" lengthAdjust="spacingAndGlyphs" textLength="66" x="590.549" y="162.3618">SearchBox</text><ellipse cx="96.143" cy="253.8774" fill="#F8F8F8" rx="19.2635" ry="12.8774" style="stroke: #383838; stroke-width: 0.5;"/><text fill="#000000" font-family="Tahoma, sans-serif" font-size="12" font-weight="bold" lengthAdjust="spacingAndGlyphs" textLength="23" x="84.643" y="257.3618">src</text><ellipse cx="451.2786" cy="329.7797" fill="#F8F8F8" rx="64.3986" ry="15.2797" style="stroke: #383838; stroke-width: 0.5;"/><text fill="#000000" font-family="Tahoma, sans-serif" font-size="12" lengthAdjust="spacingAndGlyphs" textLength="101" x="400.7786" y="333.2641">StockGraphMain</text><ellipse cx="451.1851" cy="375.8774" fill="#F8F8F8" rx="43.3051" ry="12.8774" style="stroke: #383838; stroke-width: 0.5;"/><text fill="#000000" font-family="Tahoma, sans-serif" font-size="12" lengthAdjust="spacingAndGlyphs" textLength="57" x="422.6851" y="379.3618">StockInfo</text><!--MD5=[cc32598c3093146c1d8ed98e2bf7d244]
entity _StockTable--><rect fill="#F8F8F8" height="33.9688" rx="3" ry="3" style="stroke: #000000; stroke-width: 0.5;" width="89" x="578.88" y="211"/><text fill="#000000" font-family="Tahoma, sans-serif" font-size="12" lengthAdjust="spacingAndGlyphs" textLength="69" x="588.88" y="232.1387">StockTable</text><ellipse cx="293.0331" cy="366.1306" fill="#F8F8F8" rx="61.1531" ry="14.6306" style="stroke: #383838; stroke-width: 0.5;"/><text fill="#000000" font-family="Tahoma, sans-serif" font-size="12" lengthAdjust="spacingAndGlyphs" textLength="93" x="246.5331" y="369.615">Strategy/Minho</text><ellipse cx="96.4523" cy="208.1146" fill="#F8F8F8" rx="68.5728" ry="16.1146" style="stroke: #383838; stroke-width: 0.5;"/><text fill="#000000" font-family="Tahoma, sans-serif" font-size="12" lengthAdjust="spacingAndGlyphs" textLength="111" x="40.9523" y="211.5989">webpack.common</text><ellipse cx="96.5326" cy="112.1306" fill="#F8F8F8" rx="61.1531" ry="14.6306" style="stroke: #383838; stroke-width: 0.5;"/><text fill="#000000" font-family="Tahoma, sans-serif" font-size="12" font-weight="bold" lengthAdjust="spacingAndGlyphs" textLength="93" x="50.0326" y="115.615">webpack.dev</text><ellipse cx="96.2781" cy="158.7797" fill="#F8F8F8" rx="64.3986" ry="15.2797" style="stroke: #383838; stroke-width: 0.5;"/><text fill="#000000" font-family="Tahoma, sans-serif" font-size="12" font-weight="bold" lengthAdjust="spacingAndGlyphs" textLength="101" x="45.7781" y="162.2641">webpack.prod</text><ellipse cx="292.6643" cy="410.8774" fill="#F8F8F8" rx="31.2843" ry="12.8774" style="stroke: #383838; stroke-width: 0.5;"/><text fill="#000000" font-family="Tahoma, sans-serif" font-size="12" lengthAdjust="spacingAndGlyphs" textLength="40" x="272.6643" y="414.3618">Yeonju</text><ellipse cx="96.4775" cy="20.8774" fill="#F8F8F8" rx="42.598" ry="12.8774" style="stroke: #383838; stroke-width: 0.5;"/><text fill="#000000" font-family="Tahoma, sans-serif" font-size="12" font-weight="bold" lengthAdjust="spacingAndGlyphs" textLength="56" x="68.4775" y="24.3618">Yeonju2</text><ellipse cx="292.7709" cy="453.8774" fill="#F8F8F8" rx="41.8909" ry="12.8774" style="stroke: #383838; stroke-width: 0.5;"/><text fill="#000000" font-family="Tahoma, sans-serif" font-size="12" lengthAdjust="spacingAndGlyphs" textLength="55" x="265.2709" y="457.3618">Youngbin</text><!--MD5=[aa1091f531fbe5a05d43f0853b1d1dd8]
link App to Header--><path d="M116.475,295.104 C131.16,292.766 151.19,287.561 164.88,276 C189.632,255.096 178.855,237.225 197.88,211 C210.428,193.702 212.489,185.982 231.88,177 C290.409,149.888 367.2,150.783 412.425,154.486 " fill="none" id="App-&gt;Header" style="stroke: #000000; stroke-width: 0.5;"/><polygon fill="#000000" points="417.51,154.926,408.8873,150.1668,412.5285,154.496,408.1993,158.1372,417.51,154.926" style="stroke: #000000; stroke-width: 0.5;"/><!--MD5=[0c7586ebc398268df8495c31d139b7a9]
link App to Hwayeon--><path d="M116.177,294.734 C130.699,292.192 150.653,286.893 164.88,276 C186.612,259.359 175.885,240.293 197.88,224 C211.936,213.587 229.956,207.344 246.452,203.602 " fill="none" id="App-&gt;Hwayeon" style="stroke: #000000; stroke-width: 0.5;"/><polygon fill="#000000" points="251.516,202.519,241.8785,200.4895,246.6265,203.5646,243.5515,208.3126,251.516,202.519" style="stroke: #000000; stroke-width: 0.5;"/><!--MD5=[ca31ec3adf6f55cbee3dfc53600b6cc5]
link App to Main--><path d="M114.865,291.571 C128.494,287.337 147.893,281.304 164.88,276 C194.667,266.698 201.322,261.331 231.88,255 C299.755,240.936 381.371,235.249 423.016,233.133 " fill="none" id="App-&gt;Main" style="stroke: #000000; stroke-width: 0.5;"/><polygon fill="#000000" points="428.136,232.881,418.9493,229.3307,423.1421,233.1281,419.3447,237.3209,428.136,232.881" style="stroke: #000000; stroke-width: 0.5;"/><!--MD5=[c6571c0e0615bea44d4bbc1fd68be1a7]
link App to MainStrategy--><path d="M116.383,295.046 C143.553,292.252 194.643,286.999 234.721,282.877 " fill="none" id="App-&gt;MainStrategy" style="stroke: #000000; stroke-width: 0.5;"/><polygon fill="#000000" points="240.049,282.33,230.6871,279.2715,235.0752,282.8414,231.5053,287.2295,240.049,282.33" style="stroke: #000000; stroke-width: 0.5;"/><!--MD5=[33d3ab4eb3d456a519230c19bc17ea35]
link App to ResultPage--><path d="M116.383,299.345 C144.742,302.844 199.161,309.559 239.918,314.588 " fill="none" id="App-&gt;ResultPage" style="stroke: #000000; stroke-width: 0.5;"/><polygon fill="#000000" points="245.321,315.255,236.8793,310.1818,240.3587,314.642,235.8985,318.1215,245.321,315.255" style="stroke: #000000; stroke-width: 0.5;"/><!--MD5=[d7dfafd42915f6ba51da3ebd585fa37c]
link App to Strategy/Minho--><path d="M114.3,303.003 C145.092,313.926 211.001,337.308 253.287,352.309 " fill="none" id="App-&gt;Strategy/Minho" style="stroke: #000000; stroke-width: 0.5;"/><polygon fill="#000000" points="258.068,354.005,250.9227,347.2268,253.3556,352.3337,248.2486,354.7666,258.068,354.005" style="stroke: #000000; stroke-width: 0.5;"/><!--MD5=[a719a805f2a1a35a7350be427058788d]
link App to Yeonju--><path d="M109.699,306.996 C132.616,325.222 183.843,364.255 231.88,389 C241.457,393.9339 252.403,398.2903 262.299,401.7974 " fill="none" id="App-&gt;Yeonju" style="stroke: #000000; stroke-width: 0.5;"/><polygon fill="#000000" points="267.063,403.4496,259.8708,396.7211,262.3391,401.8111,257.2492,404.2794,267.063,403.4496" style="stroke: #000000; stroke-width: 0.5;"/><!--MD5=[9198fe14c5602eaf5cd35d945144e176]
link App to Youngbin--><path d="M105.8133,308.581 C125.228,334.464 175.744,397.5072 231.88,433 C238.909,437.4446 246.999,441.0922 254.917,444.0269 " fill="none" id="App-&gt;Youngbin" style="stroke: #000000; stroke-width: 0.5;"/><polygon fill="#000000" points="259.813,445.7628,252.666,438.9864,255.1002,444.0927,249.9938,446.5269,259.813,445.7628" style="stroke: #000000; stroke-width: 0.5;"/><!--MD5=[3a3037b87bcf5f3ed7e8ec89e9d51ac5]
link <b>CandleChart</b> to _InterfaceCompany--><path d="M797.38,321.894 C797.38,325.85 797.38,329.806 797.38,333.762 " fill="none" id="&lt;b&gt;CandleChart&lt;/b&gt;-&gt;_InterfaceCompany" style="stroke: #000000; stroke-width: 1.0;"/><polygon fill="#000000" points="797.38,338.773,801.38,329.773,797.38,333.773,793.38,329.773,797.38,338.773" style="stroke: #000000; stroke-width: 1.0;"/><!--MD5=[749366b52fd8fc3d39cda9dd64d5c402]
link CandleChartMonth to _InterfaceCompany--><path d="M669.329,291.584 C679.01,295.031 688.997,299.175 697.88,304 C714.287,312.912 714.7,320.68 730.88,330 C735.094,332.427 739.578,334.728 744.148,336.882 " fill="none" id="CandleChartMonth-&gt;_InterfaceCompany" style="stroke: #000000; stroke-width: 0.5;"/><polygon fill="#000000" points="748.739,338.987,742.2252,331.5999,744.194,336.903,738.8908,338.8719,748.739,338.987" style="stroke: #000000; stroke-width: 0.5;"/><!--MD5=[6aa401dd653b883ceddf1294ce07bc66]
link CandleChartQuarter to _InterfaceCompany--><path d="M686.475,339.387 C699.133,341.3 712.541,343.327 725.478,345.282 " fill="none" id="CandleChartQuarter-&gt;_InterfaceCompany" style="stroke: #000000; stroke-width: 0.5;"/><polygon fill="#000000" points="730.602,346.057,722.3007,340.7572,725.6581,345.3099,721.1054,348.6674,730.602,346.057" style="stroke: #000000; stroke-width: 0.5;"/><!--MD5=[01ad8dd14d2a4ecb523a21cd5cfe0f1e]
link CandleChartWeek to _InterfaceCompany--><path d="M682.132,372.6058 C696.039,370.5844 711.054,368.4019 725.484,366.305 " fill="none" id="CandleChartWeek-&gt;_InterfaceCompany" style="stroke: #000000; stroke-width: 0.5;"/><polygon fill="#000000" points="730.771,365.536,721.2888,362.8738,725.8231,366.2561,722.4409,370.7904,730.771,365.536" style="stroke: #000000; stroke-width: 0.5;"/><!--MD5=[6bd6fdfb71496e5ac30fdc5dc7586dfc]
link CandleChartYear to _InterfaceCompany--><path d="M665.224,417.8994 C675.967,414.3819 687.462,410.3147 697.88,406 C719.44,397.07 742.76,385.3321 761.294,375.4735 " fill="none" id="CandleChartYear-&gt;_InterfaceCompany" style="stroke: #000000; stroke-width: 0.5;"/><polygon fill="#000000" points="765.899,373.0104,756.0764,373.7286,761.4902,375.3689,759.8499,380.7827,765.899,373.0104" style="stroke: #000000; stroke-width: 0.5;"/><!--MD5=[f4c7da25ab0927c3ca6e689ebc7bc3e2]
link Header to SearchBox--><path d="M487.192,159 C510.596,159 541.91,159 568.507,159 " fill="none" id="Header-&gt;SearchBox" style="stroke: #000000; stroke-width: 0.5;"/><polygon fill="#000000" points="573.759,159,564.759,155,568.759,159,564.759,163,573.759,159" style="stroke: #000000; stroke-width: 0.5;"/><!--MD5=[122e407850c2273a94f8cea859f4bad5]
link Main to _StockTable--><path d="M474.604,231.477 C499.635,230.888 541.077,229.913 573.714,229.145 " fill="none" id="Main-&gt;_StockTable" style="stroke: #000000; stroke-width: 0.5;"/><polygon fill="#000000" points="578.873,229.024,569.7818,225.236,573.8744,229.1411,569.9692,233.2338,578.873,229.024" style="stroke: #000000; stroke-width: 0.5;"/><!--MD5=[c7d3f21e81a56814ddcb595b82416494]
link ResultPage to Categories--><path d="M331.764,312.043 C354.82,306.592 384.315,299.619 408.124,293.99 " fill="none" id="ResultPage-&gt;Categories" style="stroke: #000000; stroke-width: 0.5;"/><polygon fill="#000000" points="413.114,292.81,403.4353,290.9873,408.2481,293.9601,405.2753,298.7728,413.114,292.81" style="stroke: #000000; stroke-width: 0.5;"/><!--MD5=[8cc541f6b63875cad977427cee8e7070]
link ResultPage to StockGraphMain--><path d="M344.691,323.922 C356.982,324.629 370.308,325.395 383.223,326.138 " fill="none" id="ResultPage-&gt;StockGraphMain" style="stroke: #000000; stroke-width: 0.5;"/><polygon fill="#000000" points="388.34,326.432,379.5846,321.9217,383.3483,326.1448,379.1251,329.9085,388.34,326.432" style="stroke: #000000; stroke-width: 0.5;"/><!--MD5=[cd55f14285907817669bcfaa643ef17d]
link ResultPage to StockInfo--><path d="M323.597,331.608 C341.844,338.107 365.701,346.574 386.88,354 C396.814,357.484 407.635,361.245 417.482,364.655 " fill="none" id="ResultPage-&gt;StockInfo" style="stroke: #000000; stroke-width: 0.5;"/><polygon fill="#000000" points="422.23,366.298,415.0341,359.5735,417.5052,364.6621,412.4166,367.1332,422.23,366.298" style="stroke: #000000; stroke-width: 0.5;"/><!--MD5=[f39319d2be27e673ece5aa4b202a2579]
link <b>src</b> to App--><path d="M96.3795,267.081 C96.3795,270.935 96.3795,274.789 96.3795,278.643 " fill="none" id="&lt;b&gt;src&lt;/b&gt;-&gt;App" style="stroke: #000000; stroke-width: 1.0;"/><polygon fill="#000000" points="96.3795,283.898,100.3795,274.898,96.3795,278.898,92.3795,274.898,96.3795,283.898" style="stroke: #000000; stroke-width: 1.0;"/><!--MD5=[a7b1a3d1ff415440130afe5543732900]
link StockGraphMain to CandleChartMonth--><path d="M492.667,317.914 C517.152,310.568 548.557,301.147 574.333,293.414 " fill="none" id="StockGraphMain-&gt;CandleChartMonth" style="stroke: #000000; stroke-width: 0.5;"/><polygon fill="#000000" points="579.409,291.891,569.639,290.6469,574.62,293.3283,571.9387,298.3093,579.409,291.891" style="stroke: #000000; stroke-width: 0.5;"/><!--MD5=[50d4d7b51d535b7fb0200119472c6277]
link StockGraphMain to CandleChartQuarter--><path d="M516.165,330 C525.148,330 534.468,330 543.689,330 " fill="none" id="StockGraphMain-&gt;CandleChartQuarter" style="stroke: #000000; stroke-width: 0.5;"/><polygon fill="#000000" points="548.799,330,539.799,326,543.799,330,539.799,334,548.799,330" style="stroke: #000000; stroke-width: 0.5;"/><!--MD5=[a6ba5649e526270f228e9ce555415564]
link StockGraphMain to CandleChartWeek--><path d="M492.667,342.086 C517.428,349.515 549.267,359.066 575.203,366.847 " fill="none" id="StockGraphMain-&gt;CandleChartWeek" style="stroke: #000000; stroke-width: 0.5;"/><polygon fill="#000000" points="580.308,368.3784,572.8355,361.9627,575.5185,366.9428,570.5385,369.6258,580.308,368.3784" style="stroke: #000000; stroke-width: 0.5;"/><!--MD5=[8c346b02f79633853f223b3d6421a5fa]
link StockGraphMain to CandleChartYear--><path d="M493.404,341.807 C501.366,345.257 509.278,349.598 515.88,355 C536.774,372.0971 527.486,389.5314 548.88,406 C554.929,410.6571 561.919,414.4294 569.132,417.4803 " fill="none" id="StockGraphMain-&gt;CandleChartYear" style="stroke: #000000; stroke-width: 0.5;"/><polygon fill="#000000" points="574.152,419.4792,567.2688,412.435,569.5063,417.6305,564.3108,419.868,574.152,419.4792" style="stroke: #000000; stroke-width: 0.5;"/><!--MD5=[629ce153a9044a20670238535443d5ef]
link <b>webpack.dev</b> to webpack.common--><path d="M43.9212,119.615 C30.8864,124.258 18.5893,131.676 11.3795,143.5 C4.2068,155.263 4.2068,162.737 11.3795,174.5 C17.323,184.248 26.6436,191.162 36.9725,196.066 " fill="none" id="&lt;b&gt;webpack.dev&lt;/b&gt;-&gt;webpack.common" style="stroke: #000000; stroke-width: 1.0;"/><polygon fill="#000000" points="41.7807,198.181,35.1526,190.8962,37.2038,196.1681,31.9319,198.2193,41.7807,198.181" style="stroke: #000000; stroke-width: 1.0;"/><!--MD5=[17e3fc858cc2d2adab4f7b0db78af15b]
link <b>webpack.prod</b> to webpack.common--><path d="M96.3795,174.689 C96.3795,178.728 96.3795,182.767 96.3795,186.806 " fill="none" id="&lt;b&gt;webpack.prod&lt;/b&gt;-&gt;webpack.common" style="stroke: #000000; stroke-width: 1.0;"/><polygon fill="#000000" points="96.3795,191.922,100.3795,182.922,96.3795,186.922,92.3795,182.922,96.3795,191.922" style="stroke: #000000; stroke-width: 1.0;"/><script type="text/plantuml"><![CDATA[MD5=[a76717ae2de29231a24973349a393f91]
@startuml

scale max 1920 width
left to right direction

skinparam nodesep 17
skinparam ranksep 33
skinparam monochrome true
skinparam shadowing false
skinparam defaultFontName Tahoma
skinparam defaultFontSize 12
skinparam roundCorner 6
skinparam dpi 150
skinparam arrowColor black
skinparam arrowThickness 0.5
skinparam packageTitleAlignment left

skinparam usecase {
  borderThickness 0.5
}

skinparam rectangle {
  borderThickness 0.5
}

skinparam component {
  borderThickness 1
}


(App)
(<b>CandleChart</b>)
(CandleChartMonth)
(CandleChartQuarter)
(CandleChartWeek)
(CandleChartYear)
(Categories)
(Header)
(Hwayeon)
rectangle "InterfaceCompany" as _InterfaceCompany
(Main)
(MainStrategy)
(<b>minho/Minho</b>)
(ResultPage)
(SearchBox)
(<b>src</b>)
(StockGraphMain)
(StockInfo)
rectangle "StockTable" as _StockTable
(Strategy/Minho)
(webpack.common)
(<b>webpack.dev</b>)
(<b>webpack.prod</b>)
(Yeonju)
(<b>Yeonju2</b>)
(Youngbin)


(App) ----> (Header)
(App) ---> (Hwayeon)
(App) ----> (Main)
(App) ---> (MainStrategy)
(App) ---> (ResultPage)
(App) ---> (Strategy/Minho)
(App) ---> (Yeonju)
(App) ---> (Youngbin)
(<b>CandleChart</b>) -[thickness=1]> _InterfaceCompany
(CandleChartMonth) --> _InterfaceCompany
(CandleChartQuarter) --> _InterfaceCompany
(CandleChartWeek) --> _InterfaceCompany
(CandleChartYear) --> _InterfaceCompany
(Header) --> (SearchBox)
(Main) --> _StockTable
(ResultPage) --> (Categories)
(ResultPage) --> (StockGraphMain)
(ResultPage) --> (StockInfo)
(<b>src</b>) -[thickness=1]> (App)
(StockGraphMain) --> (CandleChartMonth)
(StockGraphMain) --> (CandleChartQuarter)
(StockGraphMain) --> (CandleChartWeek)
(StockGraphMain) --> (CandleChartYear)
(<b>webpack.dev</b>) -[thickness=1]> (webpack.common)
(<b>webpack.prod</b>) -[thickness=1]> (webpack.common)

@enduml


' View and edit on https://arkit.pro
]]></script></g></svg>