<?xml version="1.0" encoding="UTF-8" standalone="no"?><svg xmlns="http://www.w3.org/2000/svg" xmlns:xlink="http://www.w3.org/1999/xlink" contentScriptType="application/ecmascript" contentStyleType="text/css" height="480px" preserveAspectRatio="none" style="width:859px;height:480px;" version="1.1" viewBox="0 0 859 480" width="859px" zoomAndPan="magnify"><defs/><g><ellipse cx="96.6336" cy="246.8774" fill="#F8F8F8" rx="19.9706" ry="12.8774" style="stroke: #383838; stroke-width: 0.5;"/><text fill="#000000" font-family="Tahoma, sans-serif" font-size="12" lengthAdjust="spacingAndGlyphs" textLength="24" x="84.6336" y="250.3618">App</text><ellipse cx="607.5101" cy="352.8694" fill="#F8F8F8" rx="69.8471" ry="16.3694" style="stroke: #383838; stroke-width: 0.5;"/><text fill="#000000" font-family="Tahoma, sans-serif" font-size="12" lengthAdjust="spacingAndGlyphs" textLength="114" x="550.5101" y="356.3538">CandleChartMonth</text><ellipse cx="607.7576" cy="402.8189" fill="#F8F8F8" rx="74.5946" ry="17.3189" style="stroke: #383838; stroke-width: 0.5;"/><text fill="#000000" font-family="Tahoma, sans-serif" font-size="12" lengthAdjust="spacingAndGlyphs" textLength="125" x="545.2576" y="406.3033">CandleChartQuarter</text><ellipse cx="607.6595" cy="453.1993" fill="#F8F8F8" rx="68.9965" ry="16.1993" style="stroke: #383838; stroke-width: 0.5;"/><text fill="#000000" font-family="Tahoma, sans-serif" font-size="12" lengthAdjust="spacingAndGlyphs" textLength="112" x="551.6595" y="456.6837">CandleChartWeek</text><ellipse cx="607.7168" cy="305.1108" fill="#F8F8F8" rx="66.0538" ry="15.6108" style="stroke: #383838; stroke-width: 0.5;"/><text fill="#000000" font-family="Tahoma, sans-serif" font-size="12" lengthAdjust="spacingAndGlyphs" textLength="105" x="555.2168" y="308.5951">CandleChartYear</text><ellipse cx="435.4534" cy="348.8774" fill="#F8F8F8" rx="51.7904" ry="12.8774" style="stroke: #383838; stroke-width: 0.5;"/><text fill="#000000" font-family="Tahoma, sans-serif" font-size="12" lengthAdjust="spacingAndGlyphs" textLength="69" x="400.9534" y="352.3618">Categories</text><ellipse cx="96.7725" cy="21.8219" fill="#F8F8F8" rx="54.6095" ry="13.3219" style="stroke: #383838; stroke-width: 0.5;"/><text fill="#000000" font-family="Tahoma, sans-serif" font-size="12" font-weight="bold" lengthAdjust="spacingAndGlyphs" textLength="76" x="58.7725" y="25.3063">ChartData</text><ellipse cx="285.1899" cy="108.8774" fill="#F8F8F8" rx="35.5269" ry="12.8774" style="stroke: #383838; stroke-width: 0.5;"/><text fill="#000000" font-family="Tahoma, sans-serif" font-size="12" lengthAdjust="spacingAndGlyphs" textLength="46" x="262.1899" y="112.3618">Header</text><ellipse cx="284.9681" cy="150.8774" fill="#F8F8F8" rx="43.3051" ry="12.8774" style="stroke: #383838; stroke-width: 0.5;"/><text fill="#000000" font-family="Tahoma, sans-serif" font-size="12" lengthAdjust="spacingAndGlyphs" textLength="57" x="256.4681" y="154.3618">Hwayeon</text><!--MD5=[bcec2c12fb9a04430c972981ac022607]
entity _InterfaceCompany--><rect fill="#F8F8F8" height="33.9688" rx="3" ry="3" style="stroke: #000000; stroke-width: 0.5;" width="133" x="715.163" y="361"/><text fill="#000000" font-family="Tahoma, sans-serif" font-size="12" lengthAdjust="spacingAndGlyphs" textLength="113" x="725.163" y="382.1387">InterfaceCompany</text><!--MD5=[5db1723ce370f447e0e15f3bf6bbbf96]
entity _Loading--><rect fill="#F8F8F8" height="33.9688" rx="3" ry="3" style="stroke: #000000; stroke-width: 0.5;" width="68" x="573.663" y="221"/><text fill="#000000" font-family="Tahoma, sans-serif" font-size="12" lengthAdjust="spacingAndGlyphs" textLength="48" x="583.663" y="242.1387">Loading</text><ellipse cx="284.962" cy="226.8774" fill="#F8F8F8" rx="22.799" ry="12.8774" style="stroke: #383838; stroke-width: 0.5;"/><text fill="#000000" font-family="Tahoma, sans-serif" font-size="12" lengthAdjust="spacingAndGlyphs" textLength="28" x="270.962" y="230.3618">Main</text><ellipse cx="435.5196" cy="129.7713" fill="#F8F8F8" rx="56.8566" ry="13.7713" style="stroke: #383838; stroke-width: 0.5;"/><text fill="#000000" font-family="Tahoma, sans-serif" font-size="12" lengthAdjust="spacingAndGlyphs" textLength="82" x="394.5196" y="133.2557">MainStrategy</text><ellipse cx="285.4117" cy="346.8774" fill="#F8F8F8" rx="27.7487" ry="12.8774" style="stroke: #383838; stroke-width: 0.5;"/><text fill="#000000" font-family="Tahoma, sans-serif" font-size="12" lengthAdjust="spacingAndGlyphs" textLength="35" x="267.9117" y="350.3618">Minho</text><ellipse cx="284.9605" cy="304.9595" fill="#F8F8F8" rx="52.7975" ry="12.9595" style="stroke: #383838; stroke-width: 0.5;"/><text fill="#000000" font-family="Tahoma, sans-serif" font-size="12" lengthAdjust="spacingAndGlyphs" textLength="71" x="249.4605" y="308.4439">ResultPage</text><ellipse cx="435.5686" cy="172.8774" fill="#F8F8F8" rx="33.4056" ry="12.8774" style="stroke: #383838; stroke-width: 0.5;"/><text fill="#000000" font-family="Tahoma, sans-serif" font-size="12" lengthAdjust="spacingAndGlyphs" textLength="43" x="414.0686" y="176.3618">Search</text><ellipse cx="96.4265" cy="204.8774" fill="#F8F8F8" rx="19.2635" ry="12.8774" style="stroke: #383838; stroke-width: 0.5;"/><text fill="#000000" font-family="Tahoma, sans-serif" font-size="12" font-weight="bold" lengthAdjust="spacingAndGlyphs" textLength="23" x="84.9265" y="208.3618">src</text><ellipse cx="435.5616" cy="393.7797" fill="#F8F8F8" rx="64.3986" ry="15.2797" style="stroke: #383838; stroke-width: 0.5;"/><text fill="#000000" font-family="Tahoma, sans-serif" font-size="12" lengthAdjust="spacingAndGlyphs" textLength="101" x="385.0616" y="397.2641">StockGraphMain</text><ellipse cx="435.4681" cy="306.8774" fill="#F8F8F8" rx="43.3051" ry="12.8774" style="stroke: #383838; stroke-width: 0.5;"/><text fill="#000000" font-family="Tahoma, sans-serif" font-size="12" lengthAdjust="spacingAndGlyphs" textLength="57" x="406.9681" y="310.3618">StockInfo</text><!--MD5=[cc32598c3093146c1d8ed98e2bf7d244]
entity _StockTable--><rect fill="#F8F8F8" height="33.9688" rx="3" ry="3" style="stroke: #000000; stroke-width: 0.5;" width="89" x="391.163" y="202"/><text fill="#000000" font-family="Tahoma, sans-serif" font-size="12" lengthAdjust="spacingAndGlyphs" textLength="69" x="401.163" y="223.1387">StockTable</text><ellipse cx="96.7358" cy="160.1146" fill="#F8F8F8" rx="68.5728" ry="16.1146" style="stroke: #383838; stroke-width: 0.5;"/><text fill="#000000" font-family="Tahoma, sans-serif" font-size="12" lengthAdjust="spacingAndGlyphs" textLength="111" x="41.2358" y="163.5989">webpack.common</text><ellipse cx="96.8161" cy="66.1306" fill="#F8F8F8" rx="61.1531" ry="14.6306" style="stroke: #383838; stroke-width: 0.5;"/><text fill="#000000" font-family="Tahoma, sans-serif" font-size="12" font-weight="bold" lengthAdjust="spacingAndGlyphs" textLength="93" x="50.3161" y="69.615">webpack.dev</text><ellipse cx="96.5616" cy="111.7797" fill="#F8F8F8" rx="64.3986" ry="15.2797" style="stroke: #383838; stroke-width: 0.5;"/><text fill="#000000" font-family="Tahoma, sans-serif" font-size="12" font-weight="bold" lengthAdjust="spacingAndGlyphs" textLength="101" x="46.0616" y="115.2641">webpack.prod</text><ellipse cx="435.4473" cy="264.8774" fill="#F8F8F8" rx="31.2843" ry="12.8774" style="stroke: #383838; stroke-width: 0.5;"/><text fill="#000000" font-family="Tahoma, sans-serif" font-size="12" lengthAdjust="spacingAndGlyphs" textLength="40" x="415.4473" y="268.3618">Yeonju</text><ellipse cx="285.0539" cy="388.8774" fill="#F8F8F8" rx="41.8909" ry="12.8774" style="stroke: #383838; stroke-width: 0.5;"/><text fill="#000000" font-family="Tahoma, sans-serif" font-size="12" lengthAdjust="spacingAndGlyphs" textLength="55" x="257.5539" y="392.3618">Youngbin</text><!--MD5=[aa1091f531fbe5a05d43f0853b1d1dd8]
link App to Header--><path d="M116.718,245.056 C131.381,242.691 151.4,237.474 165.163,226 C189.441,205.759 179.251,188.326 198.163,163 C210.763,146.127 214.516,141.49 232.163,130 C238.527,125.856 245.841,122.288 252.934,119.33 " fill="none" id="App-&gt;Header" style="stroke: #000000; stroke-width: 0.5;"/><polygon fill="#000000" points="257.795,117.379,247.9528,117.0175,253.1545,119.2406,250.9314,124.4423,257.795,117.379" style="stroke: #000000; stroke-width: 0.5;"/><!--MD5=[0c7586ebc398268df8495c31d139b7a9]
link App to Hwayeon--><path d="M116.407,244.663 C130.899,242.082 150.839,236.766 165.163,226 C186.447,210.003 176.73,191.797 198.163,176 C210.314,167.044 225.616,161.286 239.932,157.588 " fill="none" id="App-&gt;Hwayeon" style="stroke: #000000; stroke-width: 0.5;"/><polygon fill="#000000" points="245.154,156.316,235.4631,154.5591,240.296,157.4991,237.356,162.3319,245.154,156.316" style="stroke: #000000; stroke-width: 0.5;"/><!--MD5=[ca31ec3adf6f55cbee3dfc53600b6cc5]
link App to Main--><path d="M116.572,244.972 C149.759,241.413 218.596,234.031 256.917,229.922 " fill="none" id="App-&gt;Main" style="stroke: #000000; stroke-width: 0.5;"/><polygon fill="#000000" points="262.341,229.34,252.966,226.3219,257.3695,229.8729,253.8186,234.2764,262.341,229.34" style="stroke: #000000; stroke-width: 0.5;"/><!--MD5=[c6571c0e0615bea44d4bbc1fd68be1a7]
link App to MainStrategy--><path d="M115.147,241.566 C128.775,237.328 148.173,231.294 165.163,226 C184.388,220.009 319.807,180.279 338.163,172 C353.796,164.949 355.641,159.292 371.163,152 C378.509,148.549 386.551,145.349 394.369,142.519 " fill="none" id="App-&gt;MainStrategy" style="stroke: #000000; stroke-width: 0.5;"/><polygon fill="#000000" points="399.199,140.805,389.3796,140.0434,394.4866,142.4763,392.0537,147.5832,399.199,140.805" style="stroke: #000000; stroke-width: 0.5;"/><!--MD5=[fb6360b7d71cab52027ea5bd5ffa3399]
link App to Minho--><path d="M111.423,256.001 C135.36,271.449 186.486,303.514 232.163,326 C240.337,330.024 249.484,333.912 257.799,337.226 " fill="none" id="App-&gt;Minho" style="stroke: #000000; stroke-width: 0.5;"/><polygon fill="#000000" points="262.853,339.211,255.9371,332.1988,258.1988,337.3839,253.0137,339.6456,262.853,339.211" style="stroke: #000000; stroke-width: 0.5;"/><!--MD5=[33d3ab4eb3d456a519230c19bc17ea35]
link App to ResultPage--><path d="M115.208,252.456 C145.061,261.74 206.378,280.81 246.353,293.241 " fill="none" id="App-&gt;ResultPage" style="stroke: #000000; stroke-width: 0.5;"/><polygon fill="#000000" points="251.604,294.874,244.1967,288.3831,246.8293,293.39,241.8223,296.0226,251.604,294.874" style="stroke: #000000; stroke-width: 0.5;"/><!--MD5=[a719a805f2a1a35a7350be427058788d]
link App to Yeonju--><path d="M116.747,248.019 C171.164,250.926 327.741,259.289 398.811,263.085 " fill="none" id="App-&gt;Yeonju" style="stroke: #000000; stroke-width: 0.5;"/><polygon fill="#000000" points="404.188,263.372,395.4133,258.8994,399.1951,263.1063,394.9881,266.8881,404.188,263.372" style="stroke: #000000; stroke-width: 0.5;"/><!--MD5=[9198fe14c5602eaf5cd35d945144e176]
link App to Youngbin--><path d="M107.439,258.096 C128.323,281.24 179.679,335.226 232.163,368 C237.954,371.6163 244.474,374.8272 250.89,377.5834 " fill="none" id="App-&gt;Youngbin" style="stroke: #000000; stroke-width: 0.5;"/><polygon fill="#000000" points="255.761,379.6016,248.978,372.4608,251.1419,377.6874,245.9153,379.8513,255.761,379.6016" style="stroke: #000000; stroke-width: 0.5;"/><!--MD5=[749366b52fd8fc3d39cda9dd64d5c402]
link CandleChartMonth to _InterfaceCompany--><path d="M667.856,361.604 C681.357,363.566 695.838,365.671 709.772,367.696 " fill="none" id="CandleChartMonth-&gt;_InterfaceCompany" style="stroke: #000000; stroke-width: 0.5;"/><polygon fill="#000000" points="714.878,368.438,706.5478,363.1838,709.9301,367.718,705.3958,371.1004,714.878,368.438" style="stroke: #000000; stroke-width: 0.5;"/><!--MD5=[6aa401dd653b883ceddf1294ce07bc66]
link CandleChartQuarter to _InterfaceCompany--><path d="M671.733,393.8329 C684.175,392.0244 697.308,390.1156 709.982,388.2734 " fill="none" id="CandleChartQuarter-&gt;_InterfaceCompany" style="stroke: #000000; stroke-width: 0.5;"/><polygon fill="#000000" points="715.003,387.5437,705.5216,384.8787,710.0549,388.2623,706.6713,392.7956,715.003,387.5437" style="stroke: #000000; stroke-width: 0.5;"/><!--MD5=[01ad8dd14d2a4ecb523a21cd5cfe0f1e]
link CandleChartWeek to _InterfaceCompany--><path d="M651.071,440.4497 C661.366,437.0487 672.258,433.1491 682.163,429 C703.94,419.8776 727.452,407.7947 746.041,397.6797 " fill="none" id="CandleChartWeek-&gt;_InterfaceCompany" style="stroke: #000000; stroke-width: 0.5;"/><polygon fill="#000000" points="750.657,395.1535,740.8416,395.9646,746.2707,397.5536,744.6817,402.9827,750.657,395.1535" style="stroke: #000000; stroke-width: 0.5;"/><!--MD5=[6bd6fdfb71496e5ac30fdc5dc7586dfc]
link CandleChartYear to _InterfaceCompany--><path d="M649.484,317.158 C660.228,320.675 671.728,324.728 682.163,329 C703.346,337.673 726.283,348.964 744.689,358.522 " fill="none" id="CandleChartYear-&gt;_InterfaceCompany" style="stroke: #000000; stroke-width: 0.5;"/><polygon fill="#000000" points="749.267,360.912,743.14,353.2009,744.8347,358.598,739.4376,360.2926,749.267,360.912" style="stroke: #000000; stroke-width: 0.5;"/><!--MD5=[1019cec2d5442636b748752611727eb9]
link Main to Search--><path d="M304.301,219.649 C321.442,212.776 347.922,202.348 371.163,194 C381.966,190.119 393.895,186.104 404.47,182.637 " fill="none" id="Main-&gt;Search" style="stroke: #000000; stroke-width: 0.5;"/><polygon fill="#000000" points="409.224,181.085,399.4271,180.0743,404.4707,182.6361,401.9089,187.6797,409.224,181.085" style="stroke: #000000; stroke-width: 0.5;"/><!--MD5=[122e407850c2273a94f8cea859f4bad5]
link Main to _StockTable--><path d="M308.075,225.82 C328.497,224.719 359.666,223.04 385.965,221.623 " fill="none" id="Main-&gt;_StockTable" style="stroke: #000000; stroke-width: 0.5;"/><polygon fill="#000000" points="391.155,221.344,381.9521,217.8358,386.1623,221.614,382.3841,225.8241,391.155,221.344" style="stroke: #000000; stroke-width: 0.5;"/><!--MD5=[96fec1c7ab50a5b050331abf73262cad]
link MainStrategy to _Loading--><path d="M473.861,140.478 C482.739,143.627 492.001,147.473 500.163,152 C532.641,170.014 565.153,198.082 585.555,217.216 " fill="none" id="MainStrategy-&gt;_Loading" style="stroke: #000000; stroke-width: 0.5;"/><polygon fill="#000000" points="589.221,220.681,585.4269,211.5923,585.5869,217.2469,579.9323,217.4069,589.221,220.681" style="stroke: #000000; stroke-width: 0.5;"/><!--MD5=[c7d3f21e81a56814ddcb595b82416494]
link ResultPage to Categories--><path d="M319.86,314.984 C342.629,321.731 372.737,330.652 396.407,337.665 " fill="none" id="ResultPage-&gt;Categories" style="stroke: #000000; stroke-width: 0.5;"/><polygon fill="#000000" points="401.356,339.131,393.8648,332.7371,396.5624,337.7093,391.5901,340.4069,401.356,339.131" style="stroke: #000000; stroke-width: 0.5;"/><!--MD5=[8cc541f6b63875cad977427cee8e7070]
link ResultPage to StockGraphMain--><path d="M318.98,315.091 C325.697,318 332.452,321.608 338.163,326 C357.54,340.901 351.62,355.317 371.163,370 C376.419,373.9488 382.399,377.3162 388.539,380.1681 " fill="none" id="ResultPage-&gt;StockGraphMain" style="stroke: #000000; stroke-width: 0.5;"/><polygon fill="#000000" points="393.255,382.2496,386.6359,374.9566,388.6806,380.231,383.4062,382.2757,393.255,382.2496" style="stroke: #000000; stroke-width: 0.5;"/><!--MD5=[cd55f14285907817669bcfaa643ef17d]
link ResultPage to StockInfo--><path d="M338.101,305.7 C353.881,305.912 371.144,306.145 386.654,306.353 " fill="none" id="ResultPage-&gt;StockInfo" style="stroke: #000000; stroke-width: 0.5;"/><polygon fill="#000000" points="391.841,306.423,382.8955,302.3025,386.8415,306.3559,382.7881,310.3018,391.841,306.423" style="stroke: #000000; stroke-width: 0.5;"/><!--MD5=[f39319d2be27e673ece5aa4b202a2579]
link <b>src</b> to App--><path d="M96.663,218.084 C96.663,221.538 96.663,224.993 96.663,228.447 " fill="none" id="&lt;b&gt;src&lt;/b&gt;-&gt;App" style="stroke: #000000; stroke-width: 1.0;"/><polygon fill="#000000" points="96.663,233.875,100.663,224.875,96.663,228.875,92.663,224.875,96.663,233.875" style="stroke: #000000; stroke-width: 1.0;"/><!--MD5=[a7b1a3d1ff415440130afe5543732900]
link StockGraphMain to CandleChartMonth--><path d="M481.774,383.1204 C503.63,377.8491 530.037,371.4804 552.929,365.959 " fill="none" id="StockGraphMain-&gt;CandleChartMonth" style="stroke: #000000; stroke-width: 0.5;"/><polygon fill="#000000" points="558.059,364.722,548.3719,362.9443,553.1985,365.8946,550.2481,370.7212,558.059,364.722" style="stroke: #000000; stroke-width: 0.5;"/><!--MD5=[50d4d7b51d535b7fb0200119472c6277]
link StockGraphMain to CandleChartQuarter--><path d="M498.999,397.3002 C509.016,397.8305 519.486,398.3847 529.794,398.9305 " fill="none" id="StockGraphMain-&gt;CandleChartQuarter" style="stroke: #000000; stroke-width: 0.5;"/><polygon fill="#000000" points="534.839,399.1976,526.063,394.7275,529.846,398.9333,525.6402,402.7163,534.839,399.1976" style="stroke: #000000; stroke-width: 0.5;"/><!--MD5=[a6ba5649e526270f228e9ce555415564]
link StockGraphMain to CandleChartWeek--><path d="M471.407,406.9085 C489.727,413.6372 512.607,421.9181 533.163,429 C542.241,432.1276 551.985,435.3812 561.313,438.4461 " fill="none" id="StockGraphMain-&gt;CandleChartWeek" style="stroke: #000000; stroke-width: 0.5;"/><polygon fill="#000000" points="566.148,440.0301,558.8412,433.4263,561.3966,438.473,556.3499,441.0285,566.148,440.0301" style="stroke: #000000; stroke-width: 0.5;"/><!--MD5=[8c346b02f79633853f223b3d6421a5fa]
link StockGraphMain to CandleChartYear--><path d="M477.605,382.2082 C485.487,378.9439 493.388,374.911 500.163,370 C519.102,356.272 513.915,342.292 533.163,329 C539.749,324.452 547.254,320.721 554.893,317.672 " fill="none" id="StockGraphMain-&gt;CandleChartYear" style="stroke: #000000; stroke-width: 0.5;"/><polygon fill="#000000" points="559.66,315.861,549.8261,315.3179,554.9859,317.6366,552.6672,322.7964,559.66,315.861" style="stroke: #000000; stroke-width: 0.5;"/><!--MD5=[44b4e2a9d281c9c22474939a9cef4010]
link StockInfo to _Loading--><path d="M466.611,297.804 C477.287,294.34 489.343,290.214 500.163,286 C523.257,277.005 548.571,265.66 568.723,256.258 " fill="none" id="StockInfo-&gt;_Loading" style="stroke: #000000; stroke-width: 0.5;"/><polygon fill="#000000" points="573.466,254.037,563.6191,254.2313,568.9379,256.1574,567.0118,261.4763,573.466,254.037" style="stroke: #000000; stroke-width: 0.5;"/><!--MD5=[ad81972893a1205da58fc09c1acc3f4a]
link _StockTable to _Loading--><path d="M480.442,223.893 C507.65,226.934 542.293,230.806 568.399,233.723 " fill="none" id="_StockTable-&gt;_Loading" style="stroke: #000000; stroke-width: 0.5;"/><polygon fill="#000000" points="573.502,234.294,565.0022,229.3187,568.533,233.7384,564.1133,237.2691,573.502,234.294" style="stroke: #000000; stroke-width: 0.5;"/><!--MD5=[629ce153a9044a20670238535443d5ef]
link <b>webpack.dev</b> to webpack.common--><path d="M43.0054,73.186 C30.4682,77.634 18.725,84.728 11.663,96 C4.1123,108.052 4.1123,115.948 11.663,128 C17.4707,137.27 26.3729,143.866 36.266,148.556 " fill="none" id="&lt;b&gt;webpack.dev&lt;/b&gt;-&gt;webpack.common" style="stroke: #000000; stroke-width: 1.0;"/><polygon fill="#000000" points="40.8737,150.58,34.2423,143.2982,36.2959,148.5691,31.0249,150.6227,40.8737,150.58" style="stroke: #000000; stroke-width: 1.0;"/><!--MD5=[17e3fc858cc2d2adab4f7b0db78af15b]
link <b>webpack.prod</b> to webpack.common--><path d="M96.663,127.938 C96.663,131.424 96.663,134.91 96.663,138.396 " fill="none" id="&lt;b&gt;webpack.prod&lt;/b&gt;-&gt;webpack.common" style="stroke: #000000; stroke-width: 1.0;"/><polygon fill="#000000" points="96.663,143.875,100.663,134.875,96.663,138.875,92.663,134.875,96.663,143.875" style="stroke: #000000; stroke-width: 1.0;"/><!--MD5=[ad6412739474c5506003cc55fb104b99]
link Yeonju to _Loading--><path d="M465.501,260.42 C493.799,255.925 537.128,249.044 568.316,244.09 " fill="none" id="Yeonju-&gt;_Loading" style="stroke: #000000; stroke-width: 0.5;"/><polygon fill="#000000" points="573.602,243.251,564.086,240.7121,568.6639,244.0352,565.3408,248.6131,573.602,243.251" style="stroke: #000000; stroke-width: 0.5;"/><script type="text/plantuml"><![CDATA[MD5=[f0c9a7942415a9d758844a76c3dc4641]
@startuml

scale max 1920 width
left to right direction

skinparam nodesep 16
skinparam ranksep 33
skinparam monochrome true
skinparam shadowing false
skinparam defaultFontName Tahoma
skinparam defaultFontSize 12
skinparam roundCorner 6
skinparam dpi 150
skinparam arrowColor black
skinparam arrowThickness 0.5
skinparam packageTitleAlignment left

skinparam usecase {
  borderThickness 0.5
}

skinparam rectangle {
  borderThickness 0.5
}

skinparam component {
  borderThickness 1
}


(App)
(CandleChartMonth)
(CandleChartQuarter)
(CandleChartWeek)
(CandleChartYear)
(Categories)
(<b>ChartData</b>)
(Header)
(Hwayeon)
rectangle "InterfaceCompany" as _InterfaceCompany
rectangle "Loading" as _Loading
(Main)
(MainStrategy)
(Minho)
(ResultPage)
(Search)
(<b>src</b>)
(StockGraphMain)
(StockInfo)
rectangle "StockTable" as _StockTable
(webpack.common)
(<b>webpack.dev</b>)
(<b>webpack.prod</b>)
(Yeonju)
(Youngbin)


(App) ---> (Header)
(App) ---> (Hwayeon)
(App) ---> (Main)
(App) ---> (MainStrategy)
(App) ---> (Minho)
(App) ---> (ResultPage)
(App) ---> (Yeonju)
(App) ---> (Youngbin)
(CandleChartMonth) --> _InterfaceCompany
(CandleChartQuarter) --> _InterfaceCompany
(CandleChartWeek) --> _InterfaceCompany
(CandleChartYear) --> _InterfaceCompany
(Main) --> (Search)
(Main) --> _StockTable
(MainStrategy) --> _Loading
(ResultPage) --> (Categories)
(ResultPage) --> (StockGraphMain)
(ResultPage) --> (StockInfo)
(<b>src</b>) -[thickness=1]> (App)
(StockGraphMain) --> (CandleChartMonth)
(StockGraphMain) --> (CandleChartQuarter)
(StockGraphMain) --> (CandleChartWeek)
(StockGraphMain) --> (CandleChartYear)
(StockInfo) --> _Loading
_StockTable --> _Loading
(<b>webpack.dev</b>) -[thickness=1]> (webpack.common)
(<b>webpack.prod</b>) -[thickness=1]> (webpack.common)
(Yeonju) --> _Loading

@enduml


' View and edit on https://arkit.pro
]]></script></g></svg>